<?xml version="1.0" standalone="no"?>
<!DOCTYPE svg PUBLIC "-//W3C//DTD SVG 20010904//EN"
 "http://www.w3.org/TR/2001/REC-SVG-20010904/DTD/svg10.dtd">
<svg version="1.0" xmlns="http://www.w3.org/2000/svg"
 width="493.000000pt" height="506.000000pt" viewBox="0 0 493.000000 506.000000"
 preserveAspectRatio="xMidYMid meet">

<g transform="translate(0.000000,506.000000) scale(0.100000,-0.100000)"
fill="#000000" stroke="none">
<path d="M2245 4549 c-313 -30 -690 -187 -920 -384 -109 -94 -126 -113 -44
-52 114 84 235 157 356 213 54 25 98 45 98 44 0 -2 50 13 110 33 354 113 707
125 1060 36 424 -107 817 -346 1072 -652 239 -287 378 -602 423 -962 23 -183
31 -369 20 -465 -23 -197 -89 -436 -163 -590 -37 -77 -109 -174 -121 -163 -3
4 -6 1 -6 -5 0 -6 -163 -174 -362 -373 l-362 -362 -122 -58 c-224 -107 -429
-161 -678 -181 -227 -18 -490 16 -723 93 -137 45 -372 166 -508 261 -127 88
-342 292 -427 403 -140 186 -264 413 -322 590 -38 118 -73 271 -87 381 -15
121 -6 435 15 553 9 47 14 86 12 89 -5 4 -9 -8 -35 -118 -35 -149 -44 -253
-38 -450 9 -329 79 -580 237 -855 91 -158 162 -248 309 -396 257 -256 566
-440 901 -535 105 -29 104 -29 96 -42 -16 -26 -296 62 -456 142 -202 101 -395
243 -565 415 -44 45 -87 81 -95 81 -9 0 -21 5 -27 11 -14 14 -213 32 -242 21
-21 -7 -17 -14 72 -117 188 -220 448 -432 717 -584 553 -314 1210 -371 1785
-156 174 65 459 214 473 247 2 5 9 5 15 2 9 -5 9 -4 1 5 -8 9 -18 10 -30 4
-12 -6 -99 -6 -229 0 l-210 10 -120 -41 c-217 -73 -426 -105 -655 -100 -207 4
-183 22 42 29 336 12 606 82 888 231 572 301 947 841 1045 1503 9 61 18 177
19 258 2 107 7 151 16 157 14 9 8 86 -17 210 -16 82 -20 91 -32 71 -6 -8 -25
40 -56 135 -115 358 -255 593 -495 835 -140 140 -226 208 -385 303 -371 223
-801 318 -1250 275z"/>
<path d="M4440 3783 c116 -192 224 -447 271 -642 81 -335 92 -714 30 -1029
-68 -344 -240 -710 -463 -987 -459 -571 -1171 -902 -1873 -872 -133 6 -315 30
-339 44 -19 12 -261 71 -269 66 -9 -5 -118 29 -202 64 -297 124 -562 307 -797
551 -98 102 -131 107 -43 6 162 -184 418 -380 655 -501 145 -73 200 -97 325
-138 207 -69 370 -100 611 -116 648 -44 1310 207 1779 676 355 355 577 794
661 1310 26 155 26 544 0 700 -50 310 -167 632 -309 850 -38 60 -72 76 -37 18z"/>
<path d="M3077 3313 c3 -10 11 -21 17 -25 7 -4 3 -17 -11 -35 -89 -122 -126
-311 -88 -458 9 -33 38 -116 65 -185 66 -166 80 -226 80 -337 0 -147 -40 -233
-148 -319 -68 -52 -148 -80 -252 -88 -110 -7 -178 -22 -245 -56 -56 -27 -62
-28 -83 -14 -41 27 -100 43 -248 69 -159 28 -224 52 -299 112 -91 72 -145 213
-132 346 6 64 24 121 100 319 64 166 81 239 73 318 -7 78 -42 186 -85 264 -18
31 -29 60 -27 65 12 18 -34 18 -55 0 -18 -15 -19 -21 -9 -33 6 -9 8 -21 4 -28
-4 -7 -4 -10 1 -6 16 15 55 -45 85 -133 l22 -67 -20 -46 c-24 -53 -70 -86
-122 -86 -41 0 -84 26 -76 46 3 8 1 14 -3 14 -27 0 -28 -81 -1 -105 15 -14 31
-17 75 -13 65 5 100 28 132 83 l22 39 7 -28 c10 -42 -28 -178 -95 -340 -33
-78 -65 -166 -71 -197 -17 -77 -8 -200 20 -272 30 -79 104 -174 170 -219 61
-42 175 -82 260 -92 30 -4 79 -12 108 -18 52 -11 52 -11 33 -32 -43 -48 -51
-91 -27 -138 8 -15 11 -30 6 -33 -13 -8 -40 48 -40 82 0 15 7 41 15 57 9 16
13 31 11 33 -7 8 -60 -24 -84 -50 -59 -63 -189 -36 -167 34 6 17 13 20 36 15
20 -4 29 -1 29 7 0 23 -23 37 -62 37 -42 0 -67 -27 -71 -76 -1 -16 -6 -32 -12
-37 -19 -15 37 -49 71 -44 17 3 36 1 42 -5 6 -6 23 -3 50 11 53 27 66 27 52 2
-24 -47 0 -102 37 -86 17 8 17 8 1 12 -23 6 -24 61 -3 89 14 18 14 18 15 -4 0
-27 22 -73 44 -91 20 -17 81 -30 106 -24 24 6 26 37 5 73 -19 33 -19 51 0 44
8 -3 28 4 45 16 40 28 87 28 139 -1 36 -21 43 -22 51 -9 19 29 10 -9 -12 -56
-22 -45 -22 -46 -4 -60 19 -14 46 -12 97 7 30 12 59 57 59 94 0 23 2 26 15 15
18 -15 20 -86 3 -93 -7 -2 -9 -8 -5 -13 13 -14 42 11 45 39 2 14 -2 35 -8 47
-14 27 3 27 55 0 24 -12 43 -16 48 -11 5 5 24 7 41 4 22 -3 38 1 54 14 20 16
21 22 11 63 -5 25 -17 53 -26 62 -19 22 -72 23 -99 4 -23 -17 -13 -30 24 -31
39 0 44 -47 7 -71 -42 -27 -108 -13 -161 36 -57 53 -79 54 -53 3 24 -48 24
-70 -3 -113 -21 -36 -38 -28 -19 9 22 41 13 91 -23 127 -19 19 -30 36 -26 39
4 3 66 11 137 19 76 9 151 23 182 36 153 60 242 176 272 353 21 128 0 231
-101 482 -50 125 -60 165 -59 245 l0 75 14 -44 c25 -79 82 -121 164 -121 40 0
53 4 65 22 20 29 20 59 0 84 -8 10 -13 14 -9 7 3 -7 -3 -21 -15 -33 -43 -43
-139 -15 -180 52 -40 66 -21 145 60 254 21 28 35 55 32 60 -4 6 -24 20 -44 33
-34 20 -37 21 -31 4z m42 -37 c-3 -3 -11 5 -18 17 -13 21 -12 21 5 5 10 -10
16 -20 13 -22z m-1325 -380 c-9 -25 -81 -58 -116 -54 -52 5 -44 25 12 30 30 3
63 14 78 25 31 23 35 23 26 -1z m1316 3 c17 -13 50 -24 80 -27 60 -6 63 -26 4
-30 -43 -3 -95 23 -114 57 -14 27 -6 26 30 0z m-750 -1144 c25 -13 25 -13 -10
-12 -30 2 -37 -2 -52 -31 -24 -48 -32 -52 -24 -12 5 31 37 71 55 70 3 -1 17
-7 31 -15z m235 -10 c24 -23 36 -83 15 -70 -5 3 -10 12 -10 19 0 8 -8 24 -19
37 -18 22 -21 22 -60 9 -49 -16 -64 -8 -24 14 41 22 70 19 98 -9z"/>
<path d="M2374 3312 c5 -8 -55 -12 -218 -14 -123 -2 -222 0 -219 5 7 12 -8 8
-47 -14 l-38 -21 24 -42 c45 -77 84 -220 85 -306 1 -105 -16 -158 -122 -396
-10 -23 -28 -77 -40 -120 -53 -192 25 -371 196 -450 50 -24 65 -27 254 -63 57
-11 125 -31 152 -44 38 -18 51 -21 61 -11 26 24 132 55 226 65 196 21 248 39
324 115 58 57 87 128 95 233 6 93 -8 153 -81 341 -69 175 -81 225 -80 340 1
109 20 185 69 276 l33 61 -36 14 c-20 8 -40 13 -44 11 -4 -1 -8 1 -8 5 0 5
-90 7 -200 5 -134 -2 -200 1 -200 8 0 5 -8 10 -17 10 -11 0 -14 -3 -7 -8 6 -4
14 -15 17 -25 4 -11 16 -21 28 -24 11 -3 18 -11 15 -19 -3 -7 2 -18 10 -24 18
-15 19 -54 2 -44 -10 6 -10 4 0 -7 14 -16 16 -79 2 -79 -5 0 -10 10 -10 22 0
12 -3 19 -6 15 -9 -9 4 -57 16 -57 5 0 11 9 15 19 11 37 76 39 90 3 4 -9 9
-41 11 -71 l4 -54 -22 15 c-16 11 -24 27 -26 54 -4 59 -9 69 -27 54 -26 -22
-17 -60 25 -106 43 -47 49 -73 24 -98 -18 -18 -38 -20 -64 -6 -15 8 -22 5 -34
-12 -24 -33 -19 -46 16 -50 29 -3 33 -8 43 -48 7 -25 15 -65 19 -89 5 -36 4
-42 -8 -38 -8 3 -20 -1 -26 -9 -25 -30 -70 -12 -82 33 -6 24 11 36 37 27 16
-6 21 20 9 50 -8 22 -54 21 -54 0 0 -14 -3 -14 -16 -3 -13 10 -17 10 -24 -2
-8 -11 -12 -11 -24 6 -9 11 -16 24 -16 28 0 5 -4 6 -9 3 -5 -3 -11 4 -14 15
-6 21 -8 19 -47 -17 -23 -22 -46 -49 -50 -61 -8 -19 -15 -21 -47 -17 -21 3
-43 7 -50 9 -16 5 -13 65 4 65 7 0 13 5 13 10 0 14 16 12 33 -4 13 -13 17 -12
37 9 18 19 21 27 11 39 -7 8 -21 12 -34 8 -19 -5 -20 -3 -9 10 7 8 11 24 10
34 -1 11 2 34 7 52 5 24 12 31 24 27 9 -2 34 2 55 9 35 12 37 14 18 20 -12 4
-22 12 -22 17 0 5 -12 1 -27 -8 -34 -23 -163 -28 -163 -7 0 10 -9 12 -31 7
-26 -5 -30 -3 -28 13 2 10 0 25 -5 32 -5 8 -1 21 10 33 21 23 28 24 47 4 21
-21 83 -9 83 16 0 10 -6 19 -14 19 -16 0 -42 24 -42 39 0 6 -6 11 -14 11 -7 0
-19 7 -26 15 -10 13 -10 19 5 35 10 11 14 20 9 21 -5 0 4 5 20 9 34 11 46 6
46 -20 0 -11 10 -20 24 -24 13 -3 31 -9 40 -12 11 -4 16 -1 16 11 0 15 3 15
15 5 9 -7 18 -10 22 -6 3 3 1 6 -5 6 -7 0 -12 7 -12 15 0 8 -6 15 -14 15 -21
0 -30 18 -17 34 6 7 7 17 3 22 -4 4 1 2 11 -5 10 -8 16 -20 13 -28 -3 -8 -2
-11 3 -8 13 7 11 64 -2 72 -6 3 -7 1 -3 -5z m213 -28 c-3 -3 -12 -4 -19 -1 -8
3 -5 6 6 6 11 1 17 -2 13 -5z m-207 -813 c16 -53 36 -105 45 -116 15 -19 16
-19 50 19 19 21 44 64 56 95 11 31 25 61 31 68 14 18 47 16 54 -2 3 -8 0 -72
-7 -142 -13 -130 -14 -156 -8 -183 3 -11 -4 -15 -26 -15 l-30 0 0 98 c0 53 0
97 -1 97 -1 0 -14 -18 -29 -41 -32 -45 -75 -72 -100 -63 -9 4 -29 27 -45 52
-26 41 -28 43 -35 23 -4 -12 -10 -52 -13 -89 -7 -63 -8 -67 -32 -67 -35 0 -36
20 -2 160 26 112 27 123 13 158 -12 31 -12 40 -2 47 33 20 51 -2 81 -99z m498
67 c2 -12 -5 -19 -23 -24 -32 -8 -39 -25 -59 -143 -21 -121 -21 -119 16 -123
44 -4 53 -38 11 -38 -15 0 -45 -5 -66 -11 -50 -14 -97 -3 -97 21 0 13 9 20 27
22 27 3 29 7 44 89 32 174 33 163 -3 177 -39 15 -31 24 35 38 72 16 111 13
115 -8z m-603 2 c11 -18 -61 -41 -104 -34 -44 7 -45 6 -57 -80 l-7 -48 52 3
c34 3 51 0 51 -7 0 -16 -24 -24 -70 -24 -34 0 -39 -3 -44 -27 -3 -16 -10 -53
-16 -85 -11 -54 -29 -76 -52 -62 -10 6 -6 74 8 136 5 22 2 27 -17 30 l-24 3
27 26 c23 21 47 83 48 123 0 4 -16 5 -35 2 -38 -7 -45 3 -18 25 10 9 55 16
122 20 58 3 111 6 118 7 6 1 15 -3 18 -8z m159 -459 c-10 -17 -21 -31 -24 -31
-3 0 -13 14 -22 30 -9 17 -13 30 -7 30 5 0 13 -10 18 -22 8 -22 8 -22 26 5 24
37 32 26 9 -12z m40 -3 c4 -17 2 -28 -4 -28 -5 0 -10 14 -10 32 0 36 4 35 14
-4z m36 0 c0 -23 -3 -29 -11 -21 -6 6 -8 20 -4 32 9 30 15 26 15 -11z m-97
-50 c3 -10 7 -10 20 1 10 7 17 9 17 3 0 -5 7 -12 14 -15 10 -4 13 -1 9 9 -6
16 22 20 32 4 4 -6 11 -8 16 -4 5 3 8 -8 7 -25 -2 -23 -6 -28 -18 -22 -8 5
-33 7 -55 6 -22 -2 -50 -3 -62 -4 -12 0 -29 -9 -38 -18 -13 -12 -21 -14 -34
-6 -22 14 -20 37 4 42 11 2 23 8 27 15 6 8 8 7 8 -2 0 -7 -7 -15 -15 -18 -16
-7 -21 -24 -6 -24 5 0 18 16 30 35 21 36 36 44 44 23z m162 -53 c0 -11 -8 -21
-17 -23 -10 -2 -18 1 -18 7 0 6 5 11 11 11 8 0 7 6 -2 16 -12 14 -11 16 6 13
12 -3 20 -12 20 -24z"/>
<path d="M1590 3252 c-29 -8 -90 -40 -90 -47 0 -3 18 4 40 15 24 12 59 20 89
20 41 0 53 -4 70 -26 24 -31 15 -67 -18 -72 -12 -2 -20 -9 -18 -15 5 -17 48
-21 58 -5 14 22 10 70 -8 90 -13 14 -13 18 -2 18 11 1 11 2 -1 9 -22 13 -91
20 -120 13z"/>
<path d="M3215 3250 c-4 -6 10 -10 35 -10 51 0 103 -21 124 -51 21 -31 21
-107 -1 -131 -15 -17 -15 -18 -1 -13 24 9 41 60 34 99 -4 21 -20 46 -41 65
-47 41 -135 65 -150 41z"/>
<path d="M3170 3240 c-13 -8 -13 -10 2 -10 9 0 20 5 23 10 8 13 -5 13 -25 0z"/>
<path d="M3148 3185 c-16 -35 3 -75 36 -75 13 0 26 7 30 15 4 11 -1 15 -18 15
-17 0 -26 7 -30 25 -4 14 -4 30 -1 35 4 6 4 10 0 10 -3 0 -11 -11 -17 -25z"/>
<path d="M1480 3164 c-20 -51 -8 -105 27 -118 15 -6 16 -5 1 11 -24 27 -30 59
-19 98 11 41 5 47 -9 9z"/>
<path d="M4133 3063 c3 -16 15 -70 27 -122 50 -234 49 -540 -5 -766 -155 -659
-686 -1169 -1355 -1305 -136 -28 -386 -37 -530 -21 -269 32 -550 139 -776 296
-172 120 -363 315 -454 462 -17 29 -36 53 -41 53 -5 0 -8 3 -7 8 2 4 -1 8 -7
9 -31 6 48 -123 152 -249 225 -271 588 -493 933 -572 314 -72 666 -59 952 34
205 67 445 201 594 330 424 370 653 926 606 1473 -13 141 -52 348 -71 370 -6
8 -8 17 -4 20 3 4 1 7 -7 7 -8 0 -11 -9 -7 -27z"/>
<path d="M2559 3057 c-3 -26 4 -41 38 -91 38 -56 49 -66 76 -66 28 0 19 20
-15 35 -18 8 -28 15 -23 15 6 0 1 7 -9 15 -12 9 -20 28 -20 49 -1 26 -7 38
-23 45 -17 8 -23 7 -24 -2z"/>
<path d="M2441 2871 c-14 -9 -9 -41 6 -41 4 0 13 11 20 25 12 27 2 33 -26 16z"/>
<path d="M1792 2809 c-27 -46 -72 -78 -166 -115 -112 -44 -179 -129 -180 -225
0 -87 62 -150 149 -151 49 -1 75 14 75 44 0 17 -3 18 -15 8 -21 -18 -42 -6
-50 28 -9 42 24 122 105 250 72 115 114 192 108 197 -2 2 -14 -14 -26 -36z
m-132 -167 c0 -5 -12 -19 -26 -33 -71 -65 -99 -147 -74 -213 15 -42 -18 -33
-36 9 -28 68 -12 113 70 195 48 48 66 60 66 42z"/>
<path d="M3067 2825 c4 -11 31 -60 61 -110 102 -167 123 -205 137 -246 19 -52
19 -70 1 -95 -13 -16 -18 -17 -35 -6 -18 10 -21 10 -21 -6 0 -29 21 -42 68
-42 91 0 152 62 152 152 -1 96 -68 176 -190 224 -70 28 -137 79 -167 129 l-12
20 6 -20z m225 -233 c66 -69 84 -113 68 -171 -6 -22 -20 -45 -30 -51 -23 -13
-25 -3 -10 50 14 49 -3 101 -55 165 -25 30 -45 57 -45 60 0 15 23 -1 72 -53z"/>
<path d="M795 2609 c-11 -77 4 -269 30 -394 108 -515 466 -961 951 -1186 114
-53 300 -114 424 -139 183 -37 467 -24 692 34 198 50 419 158 580 283 34 26
68 53 75 58 10 7 3 11 -23 12 -23 1 -77 -14 -148 -42 -86 -34 -120 -43 -147
-39 -44 7 -64 -13 -56 -55 5 -25 3 -30 -21 -36 -58 -15 -64 -15 -58 1 10 27
-12 54 -45 54 -22 0 -32 -6 -38 -22 -5 -13 -7 -26 -5 -29 2 -3 -7 -15 -19 -26
-20 -19 -152 -52 -163 -41 -2 3 14 25 36 51 27 31 46 44 58 40 23 -6 46 21 38
44 -5 12 -9 14 -18 5 -7 -7 -23 -12 -36 -12 -13 0 -21 -4 -18 -8 3 -5 -14 -28
-38 -51 l-43 -43 -80 7 c-78 7 -79 7 -97 -20 -17 -26 -19 -27 -94 -21 -43 3
-84 5 -92 6 -10 0 -11 3 -4 8 15 9 67 113 60 119 -3 3 -20 -16 -37 -41 -29
-41 -36 -46 -63 -41 -119 20 -257 35 -286 32 -19 -2 -43 0 -53 5 -16 8 -15 13
14 49 43 54 30 60 -24 10 -44 -41 -45 -41 -93 -31 -58 12 -136 39 -183 64 -33
18 -33 18 -29 77 5 70 -12 76 -25 8 -11 -54 -10 -53 -36 -39 -17 9 -21 21 -22
63 l-1 52 -14 -47 -15 -47 -34 17 c-32 16 -35 20 -35 65 0 52 -14 56 -25 7 -7
-34 -16 -37 -36 -14 -9 11 -13 42 -12 98 l2 81 -16 -65 c-20 -78 -20 -78 -37
-59 -11 11 -12 32 -7 94 4 44 7 81 7 82 -3 4 -153 33 -174 33 -15 0 -29 11
-42 33 -10 17 -24 37 -29 44 -6 7 -11 21 -11 32 0 10 -13 32 -29 47 -60 59
-89 83 -95 77 -3 -4 -6 0 -6 8 0 13 -12 25 -46 47 -6 4 -15 18 -19 31 -7 22
-5 23 27 16 38 -8 31 -1 135 -126 67 -79 80 -100 76 -122 -7 -34 32 -56 66
-38 40 22 21 81 -25 81 -12 0 -24 4 -26 9 -1 5 -43 56 -92 114 -86 101 -90
105 -137 111 -27 4 -49 10 -49 15 0 4 -11 24 -24 43 -50 74 -102 303 -113 496
-3 62 -9 115 -14 117 -4 3 -10 -18 -14 -46z m616 -1035 c4 -2 2 -25 -3 -51
-15 -77 -16 -78 -38 -58 -11 10 -20 24 -20 31 0 7 -10 16 -22 20 -27 8 -49 29
-41 38 4 3 2 6 -4 6 -6 0 -14 7 -17 16 -5 13 3 14 67 8 39 -3 75 -8 78 -10z
m2045 -362 c-32 -21 -67 -39 -77 -39 -9 -1 -39 -9 -64 -18 -50 -16 -74 -12
-40 8 37 22 200 85 220 86 12 0 -2 -14 -39 -37z m-706 -173 c17 -4 5 -7 -37
-7 -48 0 -61 3 -56 13 5 14 31 12 93 -6z"/>
<path d="M1041 2086 c-8 -10 -22 -11 -54 -5 -57 11 -57 11 -57 -6 0 -11 12
-15 44 -15 34 0 48 -5 59 -21 21 -29 71 -23 75 9 6 43 -41 70 -67 38z"/>
<path d="M2097 1763 c-17 -17 13 -53 44 -53 19 0 19 0 -1 20 -11 11 -20 25
-20 30 0 11 -13 13 -23 3z"/>
<path d="M2770 1756 c0 -8 -10 -22 -22 -30 -19 -14 -20 -16 -5 -16 30 0 57 19
57 40 0 11 -7 20 -15 20 -8 0 -15 -6 -15 -14z"/>
<path d="M1907 1412 c14 -9 -20 -161 -39 -174 -8 -4 7 -8 37 -8 28 0 45 4 38
8 -9 6 -10 17 -2 45 10 37 29 51 29 22 0 -8 5 -15 10 -15 6 0 10 9 10 19 0 11
3 28 7 38 6 17 5 17 -15 -1 -12 -11 -25 -17 -28 -14 -10 11 8 78 21 78 24 0
45 -12 45 -25 0 -8 5 -17 10 -20 6 -4 10 7 10 24 l0 31 -72 0 c-40 0 -68 -4
-61 -8z"/>
<path d="M2084 1397 c9 -12 18 -55 22 -95 4 -40 11 -72 15 -72 5 0 25 32 44
70 19 39 37 70 39 70 9 0 -26 -125 -37 -132 -7 -4 7 -8 31 -8 27 0 41 4 37 10
-10 16 17 150 33 166 11 12 9 14 -20 14 -31 0 -36 -5 -63 -57 l-29 -58 -9 58
c-9 56 -10 57 -43 57 -34 0 -34 -1 -20 -23z"/>
<path d="M2316 1414 c16 -7 -18 -163 -37 -175 -9 -6 0 -9 29 -9 26 0 41 4 37
10 -11 18 27 169 44 173 9 3 -6 5 -34 5 -27 0 -45 -2 -39 -4z"/>
<path d="M2535 1387 c-79 -79 -46 -177 53 -161 32 5 41 11 45 30 5 30 4 30
-28 -2 -35 -35 -59 -28 -63 18 -4 45 13 112 34 133 10 9 11 15 4 15 -7 0 -27
-15 -45 -33z"/>
<path d="M2613 1409 c9 -5 17 -17 17 -24 0 -8 5 -15 10 -15 6 0 10 10 10 23 0
18 -6 23 -27 25 -24 1 -25 0 -10 -9z"/>
<path d="M2852 1393 c5 -25 28 -28 28 -4 0 12 -6 21 -16 21 -9 0 -14 -7 -12
-17z"/>
<path d="M2070 1310 c-7 -34 -20 -65 -29 -70 -12 -7 -8 -9 19 -10 23 0 30 3
22 9 -12 7 -12 19 -2 65 6 32 10 60 7 62 -2 2 -10 -23 -17 -56z"/>
<path d="M2689 1319 c-24 -24 -23 -82 1 -87 11 -2 16 8 18 34 1 19 7 44 12 55
14 26 -4 25 -31 -2z"/>
<path d="M2760 1316 c0 -14 -5 -37 -10 -52 -15 -38 -2 -44 26 -11 26 31 31 56
12 75 -19 19 -28 14 -28 -12z"/>
<path d="M2826 1334 c8 -3 9 -16 3 -42 -13 -55 -11 -62 14 -62 24 0 47 17 47
34 0 5 -7 1 -15 -10 -15 -18 -15 -15 -10 34 l7 52 -29 -1 c-15 0 -23 -3 -17
-5z"/>
<path d="M2914 1313 c0 -16 -4 -40 -8 -55 -7 -24 -5 -28 12 -28 15 0 22 10 31
44 15 61 14 66 -11 66 -18 0 -23 -6 -24 -27z"/>
<path d="M2982 1285 c-2 -53 -1 -55 22 -55 14 0 30 8 35 18 6 9 11 12 11 5 0
-22 40 -36 66 -24 33 14 32 55 -1 77 -14 9 -22 21 -19 26 4 6 1 9 -7 6 -25 -8
-21 -45 6 -71 18 -16 23 -27 16 -31 -14 -9 -31 1 -31 20 0 17 -42 13 -48 -4
-2 -7 -7 -12 -12 -12 -4 0 -4 17 1 38 13 55 11 62 -13 62 -21 0 -23 -6 -26
-55z"/>
<path d="M3120 1325 c0 -9 5 -15 11 -13 6 2 11 8 11 13 0 5 -5 11 -11 13 -6 2
-11 -4 -11 -13z"/>
<path d="M2326 1158 c3 -4 9 -8 15 -8 5 0 9 4 9 8 0 5 -7 9 -15 9 -8 0 -12 -4
-9 -9z"/>
<path d="M2604 1155 c13 -10 24 -11 37 -4 28 14 23 19 -18 19 -35 -1 -37 -2
-19 -15z"/>
</g>
</svg>
